<?xml version="1.0" encoding="UTF-8"?>
<svg width="64px" height="64px" viewBox="0 0 64 64" version="1.1" xmlns="http://www.w3.org/2000/svg" xmlns:xlink="http://www.w3.org/1999/xlink">
    <!-- Generator: Sketch 55.2 (78181) - https://sketchapp.com -->
    <title>编组</title>
    <desc>Created with Sketch.</desc>
    <defs>
        <linearGradient x1="50%" y1="0%" x2="50%" y2="100%" id="linearGradient-1">
            <stop stop-color="#85EFE1" offset="0%"></stop>
            <stop stop-color="#F8E681" offset="31.5508868%"></stop>
            <stop stop-color="#F0B05C" offset="65.9892314%"></stop>
            <stop stop-color="#F06A5C" offset="100%"></stop>
        </linearGradient>
        <linearGradient x1="50%" y1="0%" x2="50%" y2="100%" id="linearGradient-2">
            <stop stop-color="#85EFE1" offset="0%"></stop>
            <stop stop-color="#F8E681" offset="27.8056377%"></stop>
            <stop stop-color="#F0B05C" offset="65.5827703%"></stop>
            <stop stop-color="#F06A5C" offset="100%"></stop>
        </linearGradient>
    </defs>
    <g id="页面1" stroke="none" stroke-width="1" fill="none" fill-rule="evenodd">
        <g id="生产" transform="translate(-569.000000, -25.000000)">
            <g id="编组-7" transform="translate(0.000000, -2.000000)">
                <g id="编组-16" transform="translate(571.000000, 21.000000)">
                    <g id="编组" transform="translate(0.000000, 8.000000)">
                        <g id="编组-2" transform="translate(19.401796, 15.178504)" fill="url(#linearGradient-1)" stroke="url(#linearGradient-2)">
                            <path d="M11.9765991,3.85521676 C11.8621803,7.07059793 11.8023391,10.2867702 11.7349588,13.5030448 C11.93562,13.8413562 12.0192991,14.2634925 11.9100895,14.7482957 C11.517518,13.87801 11.757518,13.3391529 12.6289466,13.1322957 C12.8923752,12.9734386 13.1552323,12.8151529 13.4186609,12.6562957 C14.2083752,12.1808672 14.9992323,11.70601 15.7878037,11.2288672 C17.0432323,10.47001 18.7769466,9.67001002 19.561518,8.37629574 C20.9643752,6.06143859 18.6420895,4.00601002 16.5238037,3.55229574 C15.0068988,3.2278909 13.4692063,3.47579251 11.9765991,3.85521676 Z M11.6518701,17.1539497 C11.6443535,17.4488475 11.6365759,17.743744 11.6284895,18.0386386 C11.519918,21.9780672 11.6296323,25.7517814 9.84848945,29.3420672 C8.69020374,31.6780672 6.90620374,33.2774957 4.07648945,32.6523529 C1.26106088,32.0300672 -0.412081978,29.4169243 0.0879180216,26.6517814 C0.48048945,24.4803529 3.78448945,25.4054957 3.39420374,27.5626386 C2.97477516,29.88321 5.80106088,29.3243529 6.60791802,28.19121 C7.09077516,27.5123529 7.47763231,26.47921 7.69477516,25.67921 C8.34448945,23.2934957 8.13248945,20.4986386 8.19991802,18.0386386 C8.33462712,13.1261021 8.3836252,8.21304919 8.56826678,3.30193403 C8.20388403,2.43468607 8.45520633,1.28176547 9.62037516,0.947152879 C13.293518,-0.107704264 17.5792323,-0.808847121 20.7918037,1.80772431 C23.1632323,3.73972431 24.2906609,6.98029574 22.7043752,9.77572431 C20.945518,12.8751529 16.5832323,14.9517243 13.569518,16.5682957 C12.9638552,16.8932502 12.297204,17.0923608 11.6518701,17.1539497 Z" id="形状结合"></path>
                        </g>
                        <path d="M60,30 C60,46.5685714 46.5685714,60 30,60 C13.4314286,60 0,46.5685714 0,30 C0,13.4314286 13.4314286,0 30,0 C46.5685714,0 60,13.4314286 60,30 Z" id="Stroke-5" stroke="#56E984" stroke-width="4"></path>
                    </g>
                </g>
            </g>
        </g>
    </g>
</svg>